<svg xmlns="http://www.w3.org/2000/svg" viewBox="0 0 279.26 55.54"><defs><style>.cls-1{fill:#7c51a1;}.cls-2{font-size:23.7px;fill:#231f20;font-family:Raleway-Black, Raleway;}.cls-3{letter-spacing:-0.01em;}.cls-4{letter-spacing:-0.02em;}.cls-5{letter-spacing:0em;}.cls-6{letter-spacing:-0.02em;}.cls-7{fill:#fff;}.cls-7,.cls-8{stroke:#fff;stroke-miterlimit:10;}.cls-8{fill:none;stroke-width:3px;}</style></defs><title>MovieCornerLogoBlk</title><g id="Layer_2" data-name="Layer 2"><g id="Layer_1-2" data-name="Layer 1"><rect class="cls-1" width="58.27" height="55.54" rx="8" ry="8"/><text class="cls-2" transform="translate(67.85 36.48)">The <tspan class="cls-3" x="49.27" y="0">M</tspan><tspan class="cls-4" x="69.29" y="0">o</tspan><tspan x="83.42" y="0">vie </tspan><tspan class="cls-5" x="123.3" y="0">C</tspan><tspan x="139.56" y="0">orne</tspan><tspan class="cls-6" x="193.12" y="0">r</tspan></text><path class="cls-7" d="M27.62,14.88A12.84,12.84,0,1,0,40.45,27.72,12.84,12.84,0,0,0,27.62,14.88Zm0,3a3,3,0,1,1-3,3A3,3,0,0,1,27.62,17.84Zm-9.88,8.89a3,3,0,1,1,3,3A3,3,0,0,1,17.74,26.73Zm5.93,9.88a3,3,0,1,1,3-3A3,3,0,0,1,23.67,36.61Zm2-8.89a2,2,0,1,1,2,2A2,2,0,0,1,25.64,27.72Zm5.93,8.89a3,3,0,1,1,3-3A3,3,0,0,1,31.57,36.61Zm3-6.92a3,3,0,1,1,3-3A3,3,0,0,1,34.53,29.69Z"/><path class="cls-8" d="M27.62,39.57A21.71,21.71,0,0,0,39,40.06a21,21,0,0,0,6.91-3"/></g></g></svg>