<svg xmlns="http://www.w3.org/2000/svg" viewBox="0 0 244.58 55.54"><defs><style>.cls-1{font-size:24px;font-family:Raleway-SemiBold, Raleway;font-weight:700;}.cls-1,.cls-5,.cls-6{fill:#231f20;}.cls-2{letter-spacing:-0.01em;}.cls-3{letter-spacing:-0.02em;}.cls-4{letter-spacing:0em;}.cls-5,.cls-6{stroke:#231f20;}.cls-10,.cls-11,.cls-5,.cls-6,.cls-8,.cls-9{stroke-miterlimit:10;}.cls-11,.cls-6{stroke-width:3px;}.cls-7{fill:#7c51a1;}.cls-8{fill:#181818;}.cls-11,.cls-8{stroke:#181818;}.cls-8,.cls-9{stroke-width:5px;}.cls-10,.cls-11,.cls-9{fill:none;}.cls-10,.cls-9{stroke:#fff;}.cls-10{stroke-width:2px;}</style></defs><title>MovieNightLogoBlk</title><g id="Layer_2" data-name="Layer 2"><g id="Layer_1-2" data-name="Layer 1"><text class="cls-1" transform="translate(67.85 37.27)"><tspan class="cls-2">M</tspan><tspan class="cls-3" x="20.71" y="0">o</tspan><tspan x="34.7" y="0">vie Nig</tspan><tspan class="cls-4" x="113.06" y="0">h</tspan><tspan x="127.27" y="0">t</tspan></text><path class="cls-5" d="M225.26,16.75a13,13,0,1,0,13,13A13,13,0,0,0,225.26,16.75Zm0,3a3,3,0,1,1-3,3A3,3,0,0,1,225.26,19.75Zm-10,9a3,3,0,1,1,3,3A3,3,0,0,1,215.26,28.75Zm6,10a3,3,0,1,1,3-3A3,3,0,0,1,221.26,38.75Zm2-9a2,2,0,1,1,2,2A2,2,0,0,1,223.26,29.75Zm6,9a3,3,0,1,1,3-3A3,3,0,0,1,229.26,38.75Zm3-7a3,3,0,1,1,3-3A3,3,0,0,1,232.26,31.75Z"/><path class="cls-6" d="M225.26,41.75a22,22,0,0,0,11.5.5,21.74,21.74,0,0,0,7-3"/><rect class="cls-7" width="58.27" height="55.54" rx="8" ry="8"/><polyline class="cls-8" points="41.92 35.32 41.92 18.32 29.19 28.63 16.76 18.32 16.76 35.32"/><polyline class="cls-9" points="20.86 42.05 20.86 26.77 37.41 39.97"/><line class="cls-9" x1="37.01" y1="42.05" x2="37.01" y2="22.77"/><line class="cls-10" x1="35.15" y1="41.28" x2="21.51" y2="29.88"/><line class="cls-11" x1="31.95" y1="26.27" x2="40.86" y2="20.19"/></g></g></svg>